<svg width="133" height="38" viewBox="0 0 133 38" fill="none" xmlns="http://www.w3.org/2000/svg">
<g clip-path="url(#clip0_1443_8545)">
<rect width="133" height="38" fill="#6849FE"/>
<path d="M-6.77504 -3H45V42H-6.77504C-7.45168 42 -8 41.4471 -8 40.7647V-1.76472C-8 -2.44707 -7.45168 -3 -6.77504 -3Z" fill="black"/>
<path d="M19.8401 18.56L22.7101 15.69L14.0201 7L11.1501 9.87L17.8101 16.54H8.39014V20.59H17.8101L11.1501 27.26L14.0201 30.13L22.7101 21.44L19.8401 18.56Z" fill="#6849FE"/>
<path d="M37.04 16.54H27.61L34.28 9.87L31.41 7L22.71 15.69L25.58 18.56L22.71 21.44L31.41 30.13L34.28 27.26L27.61 20.59H37.04V16.54Z" fill="#6849FE"/>
<path d="M69.3799 12.1999H56.1999V9.63989H73.5099V12.1999L60.0399 24.8099H73.6999V27.3699H55.9399V24.8399L69.3799 12.1999Z" fill="black"/>
<path d="M79.46 9.5498V27.3698H76.26V9.5498H79.46Z" fill="black"/>
<path d="M101.47 17.9299V20.8399C100.51 25.7699 96.51 27.6899 91.65 27.6899C85.51 27.6899 82.05 23.5599 82.05 18.4399C82.05 13.0299 85.51 8.8999 91.65 8.8999C96.96 8.8999 100.26 11.1699 101.02 15.3599H97.8201C97.2401 12.6699 95.2601 11.7799 91.6801 11.7799C87.1001 11.7799 85.2501 14.1799 85.2501 18.4399C85.2501 22.4099 87.1101 24.8099 91.6801 24.8099C94.8501 24.8099 97.5001 24.1699 98.1801 20.8399H91.97V17.9299H101.47Z" fill="black"/>
<path d="M106.66 9.5498V18.3198C106.66 22.3198 108.29 24.8198 112.74 24.8198C117.19 24.8198 118.76 22.3198 118.76 18.3198V9.5498H121.96V18.3798C121.93 23.5298 118.95 27.6898 112.74 27.6898C106.53 27.6898 103.49 23.5298 103.46 18.3798V9.5498H106.66Z" fill="black"/>
</g>
<defs>
<clipPath id="clip0_1443_8545">
<rect width="133" height="38" fill="white"/>
</clipPath>
</defs>
</svg>
